<?xml version="1.0" encoding="UTF-8"?>
<svg width="160px" height="66px" viewBox="0 0 160 66" version="1.1" xmlns="http://www.w3.org/2000/svg" xmlns:xlink="http://www.w3.org/1999/xlink">
    <g id="website" stroke="none" stroke-width="1" fill="none" fill-rule="evenodd">
        <g id="Group-3-Copy" transform="translate(-75.000000, 0.000000)">
            <polygon id="Fill-26" fill="#804669"
                     points="111.81229 46.5 106.234903 46.5 100.747271 31.8531185 95.2144287 46.5 89.6373745 46.5 81.1812081 24 87.7033398 24 92.4260678 38.309312 97.7784044 24 103.670928 24 109.023264 38.309312 113.746325 24 120.268456 24"></polygon>
            <path d="M132.434578,29.111221 C130.301751,29.111221 128.632492,30.6198336 128.262117,33.1031257 L136.699205,33.1031257 C136.28189,30.3769732 134.613317,29.111221 132.434578,29.111221 M142.679344,38.2632786 L128.169266,38.2632786 C128.725686,41.2326512 131.182634,42.4994828 134.474212,42.4994828 C136.792398,42.4994828 138.971137,41.9637508 140.964517,41.2819429 L140.964517,46.7828199 C139.017391,47.5135597 136.607039,48 134.474212,48 C126.500693,48 121.771812,43.4723634 121.771812,36.0239262 C121.771812,28.819069 125.898019,24 132.434578,24 C139.109557,24 142.818792,28.819069 142.818792,36.0239262 C142.818792,36.8028783 142.772538,37.5336182 142.679344,38.2632786"
                  id="Fill-27" fill="#804669"></path>
            <path d="M155.721643,29.6624298 C154.374229,29.6624298 153.072829,29.855378 152.004581,30.144622 L152.004581,42.1124045 C153.072829,42.3542139 154.374229,42.5475188 155.721643,42.5475188 C158.695292,42.5475188 160.36754,40.327366 160.36754,36.1285133 C160.36754,31.8825825 158.695292,29.6624298 155.721643,29.6624298 M155.721643,48 C152.794693,48 148.845508,47.3726508 145.825503,46.5523534 L145.825503,12 L152.004581,12 L152.004581,24.8369411 C153.119185,24.4984793 154.513641,24.2095919 155.721643,24.2095919 C162.737188,24.2095919 166.872483,29.0828718 166.872483,36.1285133 C166.872483,43.1260068 162.737188,48 155.721643,48"
                  id="Fill-28" fill="#804669"></path>
            <polygon id="Fill-29" fill="#804669"
                     points="171.38255 46.5 177.395973 46.5 177.395973 24 171.38255 24"></polygon>
            <polygon id="Fill-30" fill="#804669"
                     points="197.272769 46.5 191.736279 39.6755528 189.494361 42.3112038 189.494361 46.5 183.409396 46.5 183.409396 12 189.494361 12 189.494361 33.9805709 197.272769 24.5204727 204.456376 24.5204727 195.213451 35.5333683 204.456376 46.5"></polygon>
            <path d="M214.861391,46.5 C212.293871,46.5 210.117767,46.0439622 207.767343,45.3588936 L207.767343,40.2018215 C210.291765,40.9317517 212.816188,41.3432651 214.861391,41.3432651 C217.385171,41.3432651 218.124583,40.520913 218.124583,39.6540364 C218.124583,38.8330335 217.472331,38.1479649 215.731383,38.1479649 C210.509183,38.1479649 207.463087,35.9571621 207.463087,31.3020013 C207.463087,27.6506634 210.596664,24 216.601696,24 C219.212957,24 221.389061,24.4560378 223.738842,25.1404318 L223.738842,30.3437149 C221.215063,29.5675736 218.69064,29.1570722 216.601696,29.1570722 C214.077273,29.1570722 213.337861,29.9784124 213.337861,30.8459636 C213.337861,31.7125028 214.034176,32.3513605 215.731383,32.3513605 C220.997324,32.3513605 224,34.5428379 224,39.198336 C224,42.848662 220.910164,46.5 214.861391,46.5"
                  id="Fill-31" fill="#804669"></path>
            <polygon id="Fill-32" fill="#804669"
                     points="171.38255 21 177.395973 21 177.395973 15 171.38255 15"></polygon>
        </g>
    </g>
</svg>
